HIERARCHY
ROOT pelvis
{
  OFFSET 0 100 0
  CHANNELS 6 Xposition Yposition Zposition Zrotation Xrotation Yrotation
  JOINT pelvis_right_femur
  {
    OFFSET -10.78128 -3.44521 -0.5502486
    CHANNELS 3 Zrotation Xrotation Yrotation
    JOINT right_femur_tibia
    {
      OFFSET -0.8047443 -44.0398 -0.1307829
      CHANNELS 3 Zrotation Xrotation Yrotation
      JOINT right_tibia_foot
      {
        OFFSET 3.006224 -47.83518 -5
        CHANNELS 3 Zrotation Xrotation Yrotation
        End Site
        {
          OFFSET 0 -5 15
        }
      }
    }
  }
  JOINT pelvis_left_femur
  {
    OFFSET 10.78128 -3.44521 -0.5502486
    CHANNELS 3 Zrotation Xrotation Yrotation
    JOINT left_femur_tibia
    {
      OFFSET 0.8047443 -44.0398 -0.1307829
      CHANNELS 3 Zrotation Xrotation Yrotation
      JOINT left_tibia_foot
      {
        OFFSET -4.370144 -48.10324 -4.275266
        CHANNELS 3 Zrotation Xrotation Yrotation
        End Site
        {
          OFFSET 0 -5 15
        }
      }
    }
  }
  JOINT pelvis_spine1
  {
    OFFSET 0 6.468898 -3.129235
    CHANNELS 3 Zrotation Xrotation Yrotation
    JOINT spine1
    {
      OFFSET 0 23.15396 4.99043
      CHANNELS 3 Zrotation Xrotation Yrotation
      JOINT spine2
      {
        OFFSET 0 20.79997 -5.064912
        CHANNELS 3 Zrotation Xrotation Yrotation
        JOINT neck
        {
          OFFSET 0 14.38658 9.616178
          CHANNELS 3 Zrotation Xrotation Yrotation
          End Site
          {
            OFFSET 0 20 0
          }
        }
      }
      JOINT right_manubrium
      {
        OFFSET -5.722621 16.35077 3.967754
        CHANNELS 3 Zrotation Xrotation Yrotation
        JOINT right_clavicle
        {
          OFFSET -13.16364 1.694482 -4.693211
          CHANNELS 3 Zrotation Xrotation Yrotation
          JOINT right_humerus
          {
            OFFSET -28.5034 -0.3100689 -2.792744
            CHANNELS 3 Zrotation Xrotation Yrotation
            JOINT right_radius
            {
              OFFSET -25.15693 0.02248979 -1.271978
              CHANNELS 3 Zrotation Xrotation Yrotation
              End Site
              {
                OFFSET -15 0 0
              }
            }
          }
        }
      }
      JOINT left_manubrium
      {
        OFFSET 5.722621 16.35077 3.967754
        CHANNELS 3 Zrotation Xrotation Yrotation
        JOINT left_clavicle
        {
          OFFSET 13.16364 1.694482 -4.693211
          CHANNELS 3 Zrotation Xrotation Yrotation
          JOINT left_humerus
          {
            OFFSET 29.39168 -1.063119 -2.237045
            CHANNELS 3 Zrotation Xrotation Yrotation
            JOINT left_radius
            {
              OFFSET 24.59957 -0.9528479 0.9047498
              CHANNELS 3 Zrotation Xrotation Yrotation
              End Site
              {
                OFFSET 15 -0 -0
              }
            }
          }
        }
      }
    }
  }
}
MOTION
Frames: 21
Frame Time: 0.0416666666667
-1584.907 104.976 1131.213 1.065154 2.195636 -120.1163 8.695822 -21.58331 0.2360457 -0 14.06851 -0 -14.63558 3.655471 0.731863 -2.712465 7.288235 -9.558972 -0 43.37057 -0 0.8005211 -9.119397 10.23797 -2.088121 -1.107966 4.952464 1.878261 11.48762 -7.867661 0.2083867 20.18482 7.299178 5.46773 -21.8963 5.804192 5.290489 -17.80627 12.02041 86.30124 34.78307 -18.92785 -0 0 12.12377 -16.62856 10.03727 7.548523 7.732973 -24.0387 -3.342359 -87.71876 13.18221 15.11475 0 0 -18.66414 14.36256 10.62874 -5.074347
-1589.758 106.1934 1128.264 -0.2612767 2.84489 -120.3911 8.754173 -16.80283 0.1616935 -0 14.25443 -0 -15.45701 2.597874 0.6939445 -2.167028 3.806461 -8.720681 -0 50.13781 -0 0.3003157 -6.341062 10.41508 -2.079527 -1.02457 5.187992 1.743195 11.51906 -7.66744 0.2139188 20.20267 7.163342 5.432884 -21.62068 5.598919 5.206148 -18.14393 12.03884 85.74353 34.4781 -18.03995 -0 0 12.91421 -16.88811 9.884218 7.845093 7.534064 -23.72228 -3.376975 -87.98237 13.40719 15.84229 0 0 -18.04819 13.59139 10.4218 -4.162718
-1594.336 107.4907 1125.431 -1.79414 3.46044 -120.8468 8.710155 -11.6203 -0.02952533 -0 13.53324 -0 -15.80888 0.8388853 0.6385001 -1.530142 -0.8019404 -7.676912 -0 54.59863 -0 0.2549096 -4.24661 11.22871 -2.065415 -0.9405931 5.499325 1.562038 11.56107 -7.402142 0.2219346 20.22931 7.008526 5.405329 -21.29266 5.368053 5.103395 -18.59033 12.06351 85.05386 34.14201 -16.92158 -0 0 13.94241 -17.20445 9.703948 8.159501 7.316014 -23.3479 -3.41141 -88.36342 13.59775 16.80593 0 0 -17.21057 12.79137 10.21256 -3.234964
-1598.598 108.583 1122.777 -3.141792 3.946957 -121.4507 8.60765 -6.579269 -0.3567361 -0 11.67348 -0 -15.68283 -1.555355 0.6218485 -0.6755478 -6.227281 -6.390899 -0 55.25133 -0 0.6699703 -3.005307 12.36595 -2.045318 -0.8597316 5.884143 1.338477 11.61252 -7.073688 0.2343918 20.2637 6.833924 5.380568 -20.9224 5.118882 4.98213 -19.14711 12.09409 84.24224 33.76328 -15.58183 -0 0 15.20755 -17.56863 9.501543 8.491013 7.077318 -22.91311 -3.441985 -88.87071 13.75562 18.01132 0 0 -16.14689 11.9649 10.00661 -2.290825
-1602.623 109.2171 1120.313 -3.981665 4.238412 -122.1538 8.45208 -2.006052 -0.7184837 -0 9.108165 -0 -15.2085 -4.520486 0.6215639 0.4612856 -11.82423 -4.993297 -0 51.52409 -0 1.418029 -2.436973 13.49042 -2.019739 -0.784215 6.324319 1.084991 11.67123 -6.6973 0.2529894 20.30333 6.64138 5.351083 -20.52628 4.862361 4.843107 -19.79261 12.12864 83.35036 33.32638 -14.07886 -0 0 16.65806 -17.96765 9.289349 8.840415 6.818576 -22.42665 -3.467081 -89.48498 13.88866 19.41018 0 0 -14.90382 11.11255 9.801772 -1.323465
-1606.551 109.2583 1118.008 -4.220697 4.324217 -122.8951 8.194196 2.0438 -0.9303315 -0 6.733842 -0 -14.5625 -7.959051 0.5385203 1.780579 -16.82772 -3.757838 -0 44.07919 -0 2.267771 -2.177062 14.40255 -1.990365 -0.7146889 6.789919 0.819988 11.73357 -6.297834 0.278876 20.34517 6.436222 5.308594 -20.12474 4.612446 4.688326 -20.48578 12.16367 82.44196 32.82041 -12.50795 -0 0 18.2021 -18.38578 9.083638 9.207219 6.543731 -21.90673 -3.486526 -90.16336 14.01049 20.91057 0 0 -13.56896 10.238 9.590579 -0.3269745
-1610.508 108.7097 1115.807 -4.027797 4.25533 -123.6124 7.758277 5.67565 -0.8509306 -0 5.433975 -0 -13.87468 -11.60442 0.2788932 3.011231 -20.59548 -2.992958 -0 34.47168 -0 3.004196 -1.926507 15.10321 -1.959889 -0.6510415 7.247528 0.5629877 11.79431 -5.902759 0.3122996 20.38669 6.2273 5.247352 -19.73987 4.384352 4.522229 -21.1773 12.19499 81.58335 32.24983 -10.97525 -0 0 19.73302 -18.80477 8.899479 9.586035 6.260706 -21.37635 -3.49993 -90.85365 14.1374 22.40463 0 0 -12.24439 9.354164 9.366844 0.6935557
-1614.589 107.6862 1113.64 -3.729422 4.125216 -124.2619 7.091345 9.017874 -0.490537 -0 5.734211 -0 -13.21968 -14.91427 -0.1480628 3.8207 -22.74075 -2.917293 -0 24.54994 -0 3.525444 -1.574977 15.73896 -1.931456 -0.5932683 7.667618 0.3305601 11.84742 -5.536359 0.3521351 20.42607 6.026067 5.166937 -19.39261 4.191614 4.352815 -21.82056 12.21908 80.82634 31.64046 -9.573793 -0 0 21.1528 -19.20432 8.747028 9.964482 5.98128 -20.85988 -3.505956 -91.50768 14.28238 23.79414 0 0 -11.02187 8.486725 9.131389 1.714707
-1618.874 106.3772 1111.434 -3.645967 4.03059 -124.8336 6.196416 12.13961 -0.01071384 -0 7.732137 -0 -12.65461 -17.16087 -0.6029418 3.972633 -23.17182 -3.574055 -0 15.94685 -0 3.830347 -1.175064 16.48307 -1.907998 -0.5418333 8.027678 0.1346492 11.88755 -5.217708 0.3955097 20.46182 5.845144 5.073318 -19.1002 4.043181 4.191674 -22.3772 12.23409 80.20189 31.03777 -8.373359 -0 0 22.38275 -19.56346 8.630705 10.32352 5.720381 -20.38252 -3.503184 -92.08638 14.44926 25.00126 0 0 -9.971861 7.673849 8.893915 2.693066
-1623.429 105.0116 1109.115 -3.9602 4.031806 -125.3427 5.132853 15.01767 0.3680834 -0 11.21398 -0 -12.24483 -17.68959 -0.8761686 3.423558 -22.07205 -4.82446 -0 9.744559 -0 3.947338 -0.8576852 17.42777 -1.89169 -0.4977664 8.311643 -0.01694386 11.9114 -4.961614 0.4378069 20.49223 5.696893 4.978012 -18.87512 3.94206 4.052936 -22.81773 12.24026 79.72344 30.5 -7.42288 -0 0 23.36283 -19.86154 8.550412 10.63924 5.495042 -19.9713 -3.491544 -92.55833 14.62995 25.96686 0 0 -9.144881 6.963192 8.671931 3.568352
-1628.3 103.8245 1106.63 -4.670832 4.135043 -125.8087 3.992168 17.52678 0.470933 -0 15.84053 -0 -12.07917 -16.15907 -0.7810103 2.29803 -19.82146 -6.430931 -0 6.350287 -0 3.88995 -0.7559113 18.53795 -1.883706 -0.4627562 8.507456 -0.1188666 11.9183 -4.780741 0.473164 20.51498 5.592405 4.895842 -18.72601 3.886106 3.951652 -23.1195 12.23963 79.39516 30.08957 -6.759232 -0 0 24.04545 -20.0782 8.503523 10.88516 5.323169 -19.65566 -3.473074 -92.8962 14.80611 26.64373 0 0 -8.578387 6.407669 8.488321 4.269602
-1633.484 103.0272 1103.96 -5.62776 4.299794 -126.2381 2.868134 19.4409 0.2249639 -0 21.29173 -0 -12.27208 -12.63592 -0.214759 0.7941067 -16.88149 -8.166273 -0 5.582543 -0 3.661819 -0.9634259 19.66882 -1.884308 -0.4392411 8.604185 -0.1662009 11.90964 -4.687577 0.4954172 20.52723 5.541058 4.841936 -18.66007 3.870745 3.902063 -23.2636 12.23509 79.22106 29.86509 -6.417078 -0 0 24.38792 -20.19281 8.486978 11.03452 5.222257 -19.46649 -3.451506 -93.07406 14.95411 26.98931 0 0 -8.304705 6.061016 8.368258 4.72288
-1638.913 102.776 1101.137 -6.60693 4.459026 -126.6187 1.834123 20.44688 -0.3377376 -0 27.29394 -0 -12.93284 -7.565495 0.8310258 -0.8895539 -13.68589 -9.87187 -0 6.857522 -0 3.282643 -1.527205 20.61897 -1.893167 -0.4305132 8.589917 -0.15292 11.88747 -4.695305 0.4993887 20.52604 5.55043 4.828467 -18.68574 3.892854 3.915891 -23.23227 12.22919 79.21246 29.8743 -6.435779 -0 0 24.34736 -20.18403 8.49934 11.06264 5.207974 -19.43354 -3.43078 -93.06734 15.05134 26.96155 0 0 -8.356032 5.973545 8.335929 4.85937
-1644.449 103.138 1098.243 -7.385672 4.541263 -126.9211 0.931219 20.18672 -1.106637 -0 33.52145 -0 -14.10206 -1.698531 2.273029 -2.573858 -10.56497 -11.45346 -0 9.351873 -0 2.802125 -2.459943 21.19331 -1.90966 -0.4408359 8.451481 -0.07142895 11.85296 -4.816908 0.482424 20.50916 5.625984 4.861342 -18.81471 3.954766 4.000387 -23.00879 12.22288 79.39237 30.14617 -6.86053 -0 0 23.88137 -20.0311 8.542795 10.94988 5.292218 -19.58065 -3.413 -92.8564 15.08194 26.52092 0 0 -8.763671 6.187257 8.411061 4.624256
-1649.915 104.0604 1095.392 -7.807413 4.493923 -127.1039 0.1694704 18.35537 -1.936377 -0 39.42563 -0 -15.67367 4.015016 3.913901 -4.093223 -7.700103 -12.84713 -0 12.12391 -0 2.289918 -3.758155 21.26981 -1.933 -0.475361 8.176688 0.08638869 11.80536 -5.062265 0.4459925 20.47585 5.769929 4.936968 -19.06156 4.067111 4.155653 -22.58083 12.21461 79.79545 30.6803 -7.736042 -0 0 22.95648 -19.71758 8.624664 10.68583 5.480197 -19.91907 -3.396659 -92.43325 15.04133 25.63933 0 0 -9.550814 6.728348 8.604615 3.988141
-1655.129 105.3601 1092.698 -7.8377 4.308207 -127.128 -0.4553589 14.86237 -2.710438 -0 44.11245 -0 -17.34776 8.631538 5.425787 -5.300833 -5.099994 -13.98632 -0 14.27683 -0 1.811952 -5.415363 20.86653 -1.962164 -0.5393103 7.759542 0.3261694 11.74218 -5.433341 0.3967457 20.42771 5.979003 5.040199 -19.43939 4.248249 4.371392 -21.94767 12.20016 80.46123 31.43386 -9.091022 -0 0 21.56492 -19.239 8.757293 10.27495 5.766671 -20.43988 -3.376385 -91.80886 14.93849 24.31512 0 0 -10.71997 7.595978 8.913094 2.961287
-1659.965 106.754 1090.225 -7.592264 4.032535 -126.9819 -0.9409074 9.990795 -3.401458 -0 46.4623 -0 -18.7012 11.52978 6.436197 -6.103764 -2.616578 -14.79241 -0 15.22342 -0 1.418828 -7.416756 20.17885 -1.995664 -0.6357431 7.208216 0.6457806 11.66165 -5.918241 0.3457376 20.36886 6.241913 5.146197 -19.94987 4.517147 4.624808 -21.12999 12.17409 81.41629 32.31388 -10.91223 -0 0 19.74694 -18.61427 8.954479 9.742268 6.132921 -21.10896 -3.345578 -91.01731 14.79256 22.59022 0 0 -12.23758 8.750089 9.312564 1.605434
-1664.386 107.9371 1087.956 -7.291552 3.752547 -126.707 -1.272367 4.402628 -4.065405 -0 45.62009 -0 -19.39367 12.65898 6.731275 -6.508692 -0.03700661 -15.20386 -0 14.93614 -0 1.167165 -9.704764 19.5314 -2.031333 -0.7618439 6.553412 1.028698 11.56711 -6.486295 0.3045183 20.30524 6.538462 5.229233 -20.56889 4.878455 4.882947 -20.17801 12.13297 82.64537 33.18946 -13.11311 -0 0 17.6097 -17.89746 9.223351 9.13551 6.547499 -21.86982 -3.302093 -90.11349 14.6194 20.5627 0 0 -14.02112 10.10692 9.756072 0.03155119
-1668.451 108.6798 1085.801 -7.130336 3.540262 -126.3963 -1.426107 -1.105629 -4.745951 -0 41.61782 -0 -19.32608 12.47363 6.374789 -6.625885 2.759958 -15.22644 -0 13.92564 -0 1.151619 -12.1342 19.22949 -2.066307 -0.9054977 5.851436 1.439869 11.47085 -7.087936 0.2789612 20.24302 6.842476 5.276637 -21.23607 5.30605 5.111364 -19.17099 12.07911 84.06536 33.93279 -15.51591 -0 0 15.32783 -17.18021 9.553897 8.519046 6.972966 -22.65672 -3.253847 -89.16485 14.41265 18.38498 0 0 -15.93717 11.55148 10.17946 -1.624812
-1672.272 108.8916 1083.648 -7.148901 3.413936 -126.1555 -1.368013 -5.956278 -5.378013 -0 35.54347 -0 -18.60198 11.57397 5.593428 -6.604063 5.688824 -14.95148 -0 12.87728 -0 1.483662 -14.47104 19.39664 -2.097392 -1.045747 5.175809 1.829828 11.39261 -7.662642 0.2652557 20.18749 7.127919 5.297816 -21.86076 5.73961 5.285422 -18.2034 12.02133 85.52859 34.47046 -17.87429 -0 0 13.11478 -16.57279 9.912838 7.958425 7.375928 -23.41164 -3.218757 -88.24161 14.13843 16.24214 0 0 -17.81891 12.964 10.51757 -3.239276
-1675.963 108.6193 1081.413 -7.220948 3.340715 -126.0563 -1.062453 -9.970295 -5.805429 -0 28.98771 -0 -17.41236 10.3807 4.600916 -6.546479 8.490329 -14.51543 -0 12.24996 -0 2.205133 -16.46726 19.92215 -2.121745 -1.159328 4.597549 2.149011 11.35116 -8.153923 0.2526321 20.14295 7.374262 5.317926 -22.34983 6.104156 5.39632 -17.36189 11.97098 86.86689 34.80445 -19.94131 -0 0 11.1722 -16.16471 10.24923 7.501547 7.73343 -24.09346 -3.216624 -87.40818 13.75979 14.31419 0 0 -19.50214 14.24364 10.7259 -4.719057
